<svg width="34" height="32" viewBox="0 0 34 32" fill="none" xmlns="http://www.w3.org/2000/svg">
<g id="Vector" filter="url(#filter0_d_12_225)">
<path d="M12.9375 1.125C12.9375 0.501562 12.3941 0 11.7188 0C11.0434 0 10.5 0.501562 10.5 1.125V3C8.70742 3 7.25 4.34531 7.25 6H5.21875C4.54336 6 4 6.50156 4 7.125C4 7.74844 4.54336 8.25 5.21875 8.25H7.25V10.875H5.21875C4.54336 10.875 4 11.3766 4 12C4 12.6234 4.54336 13.125 5.21875 13.125H7.25V15.75H5.21875C4.54336 15.75 4 16.2516 4 16.875C4 17.4984 4.54336 18 5.21875 18H7.25C7.25 19.6547 8.70742 21 10.5 21V22.875C10.5 23.4984 11.0434 24 11.7188 24C12.3941 24 12.9375 23.4984 12.9375 22.875V21H15.7813V22.875C15.7813 23.4984 16.3246 24 17 24C17.6754 24 18.2188 23.4984 18.2188 22.875V21H21.0625V22.875C21.0625 23.4984 21.6059 24 22.2813 24C22.9566 24 23.5 23.4984 23.5 22.875V21C25.2926 21 26.75 19.6547 26.75 18H28.7813C29.4566 18 30 17.4984 30 16.875C30 16.2516 29.4566 15.75 28.7813 15.75H26.75V13.125H28.7813C29.4566 13.125 30 12.6234 30 12C30 11.3766 29.4566 10.875 28.7813 10.875H26.75V8.25H28.7813C29.4566 8.25 30 7.74844 30 7.125C30 6.50156 29.4566 6 28.7813 6H26.75C26.75 4.34531 25.2926 3 23.5 3V1.125C23.5 0.501562 22.9566 0 22.2813 0C21.6059 0 21.0625 0.501562 21.0625 1.125V3H18.2188V1.125C18.2188 0.501562 17.6754 0 17 0C16.3246 0 15.7813 0.501562 15.7813 1.125V3H12.9375V1.125ZM12.125 6H21.875C22.7738 6 23.5 6.67031 23.5 7.5V16.5C23.5 17.3297 22.7738 18 21.875 18H12.125C11.2262 18 10.5 17.3297 10.5 16.5V7.5C10.5 6.67031 11.2262 6 12.125 6ZM21.875 7.5H12.125V16.5H21.875V7.5Z" fill="url(#paint0_linear_12_225)"/>
</g>
<defs>
<filter id="filter0_d_12_225" x="0" y="0" width="34" height="32" filterUnits="userSpaceOnUse" color-interpolation-filters="sRGB">
<feFlood flood-opacity="0" result="BackgroundImageFix"/>
<feColorMatrix in="SourceAlpha" type="matrix" values="0 0 0 0 0 0 0 0 0 0 0 0 0 0 0 0 0 0 127 0" result="hardAlpha"/>
<feOffset dy="4"/>
<feGaussianBlur stdDeviation="2"/>
<feComposite in2="hardAlpha" operator="out"/>
<feColorMatrix type="matrix" values="0 0 0 0 0 0 0 0 0 0 0 0 0 0 0 0 0 0 0.25 0"/>
<feBlend mode="normal" in2="BackgroundImageFix" result="effect1_dropShadow_12_225"/>
<feBlend mode="normal" in="SourceGraphic" in2="effect1_dropShadow_12_225" result="shape"/>
</filter>
<linearGradient id="paint0_linear_12_225" x1="4" y1="0" x2="30" y2="24" gradientUnits="userSpaceOnUse">
<stop offset="0.296875" stop-color="#5D7470"/>
<stop offset="0.515625" stop-color="#7AF4DE"/>
<stop offset="0.744792" stop-color="#657C78"/>
</linearGradient>
</defs>
</svg>
