<svg width="14" height="16" viewBox="0 0 14 16" fill="none" xmlns="http://www.w3.org/2000/svg">
<path d="M2.33333 1.5C2.0125 1.5 1.75 1.725 1.75 2V14C1.75 14.275 2.0125 14.5 2.33333 14.5H5.25V12.5C5.25 11.6719 6.03385 11 7 11C7.96615 11 8.75 11.6719 8.75 12.5V14.5H11.6667C11.9875 14.5 12.25 14.275 12.25 14V2C12.25 1.725 11.9875 1.5 11.6667 1.5H2.33333ZM0 2C0 0.896875 1.04635 0 2.33333 0H11.6667C12.9536 0 14 0.896875 14 2V14C14 15.1031 12.9536 16 11.6667 16H2.33333C1.04635 16 0 15.1031 0 14V2ZM3.20833 3.25C3.20833 2.975 3.47083 2.75 3.79167 2.75H5.54167C5.8625 2.75 6.125 2.975 6.125 3.25V4.75C6.125 5.025 5.8625 5.25 5.54167 5.25H3.79167C3.47083 5.25 3.20833 5.025 3.20833 4.75V3.25ZM8.45833 2.75H10.2083C10.5292 2.75 10.7917 2.975 10.7917 3.25V4.75C10.7917 5.025 10.5292 5.25 10.2083 5.25H8.45833C8.1375 5.25 7.875 5.025 7.875 4.75V3.25C7.875 2.975 8.1375 2.75 8.45833 2.75ZM3.20833 7.25C3.20833 6.975 3.47083 6.75 3.79167 6.75H5.54167C5.8625 6.75 6.125 6.975 6.125 7.25V8.75C6.125 9.025 5.8625 9.25 5.54167 9.25H3.79167C3.47083 9.25 3.20833 9.025 3.20833 8.75V7.25ZM8.45833 6.75H10.2083C10.5292 6.75 10.7917 6.975 10.7917 7.25V8.75C10.7917 9.025 10.5292 9.25 10.2083 9.25H8.45833C8.1375 9.25 7.875 9.025 7.875 8.75V7.25C7.875 6.975 8.1375 6.75 8.45833 6.75Z" fill="#413939"/>
</svg>
