<svg width="32" height="30" viewBox="0 0 32 30" fill="none" xmlns="http://www.w3.org/2000/svg">
<g id="Vector" filter="url(#filter0_d_12_221)">
<path d="M16.0012 20.424C22.6287 20.424 28 15.8532 28 10.212C28 4.57085 22.6287 0 16.0012 0C9.37377 0 4.00244 4.57085 4.00244 10.212C4.00244 12.4262 4.83204 14.4736 6.23815 16.1477C6.14909 17.3506 5.70383 18.4209 5.23512 19.2359C4.97734 19.6876 4.71486 20.0509 4.52269 20.2964C4.42427 20.4191 4.34927 20.5124 4.29303 20.5762C4.26491 20.6057 4.24616 20.6302 4.2321 20.6449L4.21804 20.6597C4.00244 20.8855 3.9415 21.2194 4.05868 21.5139C4.17586 21.8085 4.4477 22 4.75236 22C6.09754 22 7.45209 21.563 8.57697 21.0524C9.6503 20.5615 10.5643 19.9772 11.122 19.5501C12.6125 20.1147 14.2623 20.4289 16.0012 20.4289V20.424ZM14.5014 6.28431C14.5014 5.85226 14.8388 5.49877 15.2513 5.49877H16.7511C17.1636 5.49877 17.5011 5.85226 17.5011 6.28431V8.64093H19.7508C20.1633 8.64093 20.5008 8.99442 20.5008 9.42647V10.9975C20.5008 11.4296 20.1633 11.7831 19.7508 11.7831H17.5011V14.1397C17.5011 14.5717 17.1636 14.9252 16.7511 14.9252H15.2513C14.8388 14.9252 14.5014 14.5717 14.5014 14.1397V11.7831H12.2516C11.8391 11.7831 11.5017 11.4296 11.5017 10.9975V9.42647C11.5017 8.99442 11.8391 8.64093 12.2516 8.64093H14.5014V6.28431Z" fill="#477E01"/>
</g>
<defs>
<filter id="filter0_d_12_221" x="0" y="0" width="32" height="30" filterUnits="userSpaceOnUse" color-interpolation-filters="sRGB">
<feFlood flood-opacity="0" result="BackgroundImageFix"/>
<feColorMatrix in="SourceAlpha" type="matrix" values="0 0 0 0 0 0 0 0 0 0 0 0 0 0 0 0 0 0 127 0" result="hardAlpha"/>
<feOffset dy="4"/>
<feGaussianBlur stdDeviation="2"/>
<feComposite in2="hardAlpha" operator="out"/>
<feColorMatrix type="matrix" values="0 0 0 0 0 0 0 0 0 0 0 0 0 0 0 0 0 0 0.25 0"/>
<feBlend mode="normal" in2="BackgroundImageFix" result="effect1_dropShadow_12_221"/>
<feBlend mode="normal" in="SourceGraphic" in2="effect1_dropShadow_12_221" result="shape"/>
</filter>
</defs>
</svg>
