<svg width="21" height="18" viewBox="0 0 21 18" fill="none" xmlns="http://www.w3.org/2000/svg">
<path id="Vector" d="M11.2656 2.89062C11.6812 2.61719 11.9583 2.12109 11.9583 1.5625C11.9583 0.699219 11.3057 0 10.5 0C9.69427 0 9.04167 0.699219 9.04167 1.5625C9.04167 2.125 9.31875 2.61719 9.73437 2.89062L7.64531 7.36719C7.31354 8.07813 6.45312 8.28125 5.87344 7.78516L2.625 5C2.80729 4.73828 2.91667 4.41406 2.91667 4.0625C2.91667 3.19922 2.26406 2.5 1.45833 2.5C0.652604 2.5 0 3.19922 0 4.0625C0 4.92578 0.652604 5.625 1.45833 5.625C1.46562 5.625 1.47656 5.625 1.48385 5.625L3.15 15.4453C3.35052 16.6328 4.31667 17.5 5.44687 17.5H15.5531C16.6797 17.5 17.6458 16.6367 17.85 15.4453L19.5161 5.625C19.5234 5.625 19.5344 5.625 19.5417 5.625C20.3474 5.625 21 4.92578 21 4.0625C21 3.19922 20.3474 2.5 19.5417 2.5C18.7359 2.5 18.0833 3.19922 18.0833 4.0625C18.0833 4.41406 18.1927 4.73828 18.375 5L15.1266 7.78516C14.5469 8.28125 13.6865 8.07813 13.3547 7.36719L11.2656 2.89062Z" fill="#F6BB23"/>
</svg>
