<svg width="30" height="33" viewBox="0 0 30 33" fill="none" xmlns="http://www.w3.org/2000/svg">
<g id="Vector" filter="url(#filter0_d_12_223)">
<path d="M15 0C15.2108 0 15.4217 0.0490966 15.6142 0.14238L24.2446 4.0652C25.2529 4.5218 26.0046 5.5872 26 6.87353C25.9771 11.7439 24.1071 20.6549 16.21 24.7054C15.4446 25.0982 14.5554 25.0982 13.79 24.7054C5.89293 20.6549 4.02294 11.7439 4.00002 6.87353C3.99544 5.5872 4.7471 4.5218 5.75543 4.0652L14.3904 0.14238C14.5783 0.0490966 14.7892 0 15 0ZM15 3.27965V21.8382C21.325 18.5585 23.0254 11.2971 23.0667 6.94226L15 3.27965Z" fill="#A52B2B"/>
</g>
<defs>
<filter id="filter0_d_12_223" x="0" y="0" width="30" height="33" filterUnits="userSpaceOnUse" color-interpolation-filters="sRGB">
<feFlood flood-opacity="0" result="BackgroundImageFix"/>
<feColorMatrix in="SourceAlpha" type="matrix" values="0 0 0 0 0 0 0 0 0 0 0 0 0 0 0 0 0 0 127 0" result="hardAlpha"/>
<feOffset dy="4"/>
<feGaussianBlur stdDeviation="2"/>
<feComposite in2="hardAlpha" operator="out"/>
<feColorMatrix type="matrix" values="0 0 0 0 0 0 0 0 0 0 0 0 0 0 0 0 0 0 0.25 0"/>
<feBlend mode="normal" in2="BackgroundImageFix" result="effect1_dropShadow_12_223"/>
<feBlend mode="normal" in="SourceGraphic" in2="effect1_dropShadow_12_223" result="shape"/>
</filter>
</defs>
</svg>
