<svg width="34" height="31" viewBox="0 0 34 31" fill="none" xmlns="http://www.w3.org/2000/svg">
<g id="Vector" filter="url(#filter0_d_12_227)">
<path d="M17 23C20.4478 23 23.7544 21.7884 26.1924 19.6317C28.6304 17.4751 30 14.55 30 11.5C30 8.45001 28.6304 5.52494 26.1924 3.36827C23.7544 1.2116 20.4478 0 17 0C13.5522 0 10.2456 1.2116 7.80761 3.36827C5.36964 5.52494 4 8.45001 4 11.5C4 14.55 5.36964 17.4751 7.80761 19.6317C10.2456 21.7884 13.5522 23 17 23ZM8.91563 14.11C8.72266 13.4945 9.29141 12.9375 10.0125 12.9375H23.9875C24.7086 12.9375 25.2824 13.4945 25.0844 14.11C24.1195 17.1602 20.8645 19.4062 17 19.4062C13.1355 19.4062 9.88047 17.1602 8.91563 14.11ZM15.05 9.55938L15.0398 9.55039C15.0297 9.54141 15.0195 9.52793 15.0043 9.50996C14.9738 9.47402 14.923 9.42012 14.8621 9.35723C14.7352 9.23145 14.5574 9.06074 14.3441 8.89453C13.8973 8.54414 13.3895 8.26562 12.9375 8.26562C12.4855 8.26562 11.9777 8.54414 11.5309 8.89453C11.3176 9.06074 11.1398 9.23145 11.0129 9.35723C10.952 9.42012 10.9012 9.47402 10.8707 9.50996C10.8555 9.52793 10.8402 9.54141 10.8352 9.55039L10.825 9.55938C10.7184 9.68516 10.5355 9.73457 10.373 9.68516C10.2105 9.63574 10.0938 9.50098 10.0938 9.34375C10.0938 8.53965 10.434 7.74453 10.9367 7.15156C11.4344 6.56758 12.1504 6.10938 12.9375 6.10938C13.7246 6.10938 14.4406 6.56758 14.9383 7.15156C15.441 7.74453 15.7812 8.53965 15.7812 9.34375C15.7812 9.49648 15.6695 9.63574 15.502 9.68516C15.3344 9.73457 15.1516 9.68516 15.05 9.55938ZM23.175 9.55938L23.1648 9.55039C23.1547 9.54141 23.1445 9.52793 23.1293 9.50996C23.0988 9.47402 23.048 9.42012 22.9871 9.35723C22.8602 9.23145 22.6824 9.06074 22.4691 8.89453C22.0223 8.54414 21.5145 8.26562 21.0625 8.26562C20.6105 8.26562 20.1027 8.54414 19.6559 8.89453C19.4426 9.06074 19.2648 9.23145 19.1379 9.35723C19.077 9.42012 19.0262 9.47402 18.9957 9.50996C18.9805 9.52793 18.9652 9.54141 18.9602 9.55039L18.95 9.55938C18.8434 9.68516 18.6605 9.73457 18.498 9.68516C18.3355 9.63574 18.2188 9.50098 18.2188 9.34375C18.2188 8.53965 18.559 7.74453 19.0617 7.15156C19.5594 6.56758 20.2754 6.10938 21.0625 6.10938C21.8496 6.10938 22.5656 6.56758 23.0633 7.15156C23.566 7.74453 23.9062 8.53965 23.9062 9.34375C23.9062 9.49648 23.7945 9.63574 23.627 9.68516C23.4594 9.73457 23.2766 9.68516 23.175 9.55938Z" fill="#E6B32F"/>
</g>
<defs>
<filter id="filter0_d_12_227" x="0" y="0" width="34" height="31" filterUnits="userSpaceOnUse" color-interpolation-filters="sRGB">
<feFlood flood-opacity="0" result="BackgroundImageFix"/>
<feColorMatrix in="SourceAlpha" type="matrix" values="0 0 0 0 0 0 0 0 0 0 0 0 0 0 0 0 0 0 127 0" result="hardAlpha"/>
<feOffset dy="4"/>
<feGaussianBlur stdDeviation="2"/>
<feComposite in2="hardAlpha" operator="out"/>
<feColorMatrix type="matrix" values="0 0 0 0 0 0 0 0 0 0 0 0 0 0 0 0 0 0 0.25 0"/>
<feBlend mode="normal" in2="BackgroundImageFix" result="effect1_dropShadow_12_227"/>
<feBlend mode="normal" in="SourceGraphic" in2="effect1_dropShadow_12_227" result="shape"/>
</filter>
</defs>
</svg>
